Coordinates
version=1
nRows=16
nColumns=40
inDegrees=yes

Units are S.I. units (second, meters, Newtons, ...)
Angles are in degrees.

endheader
time	pelvis_tilt	pelvis_list	pelvis_rotation	pelvis_tx	pelvis_ty	pelvis_tz	hip_flexion_r	hip_adduction_r	hip_rotation_r	knee_angle_r	knee_angle_r_beta	ankle_angle_r	subtalar_angle_r	mtp_angle_r	hip_flexion_l	hip_adduction_l	hip_rotation_l	knee_angle_l	knee_angle_l_beta	ankle_angle_l	subtalar_angle_l	mtp_angle_l	lumbar_extension	lumbar_bending	lumbar_rotation	arm_flex_r	arm_add_r	arm_rot_r	elbow_flex_r	pro_sup_r	wrist_flex_r	wrist_dev_r	arm_flex_l	arm_add_l	arm_rot_l	elbow_flex_l	pro_sup_l	wrist_flex_l	wrist_dev_l
      5.29500000	     -0.41158957	     -6.71722211	     -0.14604733	      0.94584470	      0.91102512	      0.57411385	     12.06826352	      8.90622625	     -9.54389305	     30.47625919	     30.47625919	     19.48726453	    -13.49589855	      1.79297240	     25.21028381	    -16.15631169	      3.42504337	     69.84927584	     69.84927584	     14.96052315	    -19.59930899	     23.68390951	    -10.70149119	      5.67681359	     -0.59994828	      6.68667129	    -14.64570926	    -14.09725783	     42.59026616	     45.85375203	      0.00000000	      0.00000000	      6.72681305	     -8.23574547	     -2.21066760	     24.04310913	     46.23867371	      0.00000000	      0.00000000
      5.31571429	     -0.10264186	     -6.78895877	      0.56799725	      0.94336249	      0.90940348	      0.57459154	     11.82350785	      9.06417693	     -9.69799590	     31.05713908	     31.05713908	     20.02017942	    -14.28216583	      1.81872295	     26.46930408	    -16.27852554	      3.60791842	     69.12050213	     69.12050213	     15.99374301	    -19.62658920	     23.63724962	    -10.92867483	      5.46101528	     -0.55209648	      9.46901029	    -14.52414539	    -13.91811136	     44.59688035	     45.78441954	      0.00000000	      0.00000000	      4.68040019	     -7.85494434	     -1.91959844	     22.90566382	     46.14502197	      0.00000000	      0.00000000
      5.33642857	      0.10188083	     -6.77649868	      1.33542650	      0.94071362	      0.90844882	      0.57450785	     11.48967510	      9.11522931	     -9.90544365	     31.22999739	     31.22999739	     20.44007431	    -14.88304982	      1.98507502	     27.67373399	    -16.16577903	      3.72862907	     67.67266896	     67.67266896	     16.95216553	    -19.64467288	     23.81812281	    -11.05459981	      5.24243618	     -0.53990445	     12.29860662	    -14.49479149	    -13.54677287	     46.96251341	     45.69388182	      0.00000000	      0.00000000	      2.63216971	     -7.51497113	     -1.58219170	     21.97045699	     46.03579518	      0.00000000	      0.00000000
      5.35714286	      0.15279229	     -6.70924765	      2.14814193	      0.93790245	      0.90809995	      0.57384486	     11.15656308	      9.04693985	    -10.27056033	     31.09765587	     31.09765587	     20.94884116	    -15.10718153	      2.73911119	     28.87079428	    -15.81311785	      3.86101546	     65.58513510	     65.58513510	     17.71692089	    -19.64386681	     24.07798046	    -11.10558442	      5.03092957	     -0.23638787	     14.23164751	    -15.48930348	    -10.77382495	     51.30442446	     45.43021749	      0.00000000	      0.00000000	      0.30858689	     -7.44990955	      0.33875726	     22.64114696	     45.56298865	      0.00000000	      0.00000000
      5.37785714	      0.15477240	     -6.51281241	      2.99978715	      0.93496182	      0.90862084	      0.57264281	     10.65053803	      8.80874599	    -10.71240415	     30.52970141	     30.52970141	     21.05324275	    -15.21826674	      2.81457322	     29.82627322	    -15.16909717	      3.93659522	     62.78795452	     62.78795452	     17.97828587	    -19.63036645	     23.79053149	    -11.06559402	      4.69068572	     -0.06021979	     17.24339922	    -15.62775594	    -10.84393291	     53.33797584	     45.37873846	      0.00000000	      0.00000000	     -1.45898759	     -7.20578133	      0.70091485	     22.07454121	     45.45610998	      0.00000000	      0.00000000
      5.39857143	      0.03028422	     -6.26962017	      3.90552166	      0.93188535	      0.90979666	      0.57092650	     10.09483152	      8.48107807	    -11.29979822	     29.60777402	     29.60777402	     21.01976571	    -15.13642750	      2.88389878	     30.65670552	    -14.28047799	      4.10382552	     59.41315300	     59.41315300	     17.80759778	    -19.58596145	     23.31020900	    -10.93467528	      4.38117030	      0.12847427	     20.16156896	    -15.90618800	    -10.76527375	     55.67755692	     45.31052513	      0.00000000	      0.00000000	     -3.18918438	     -7.03799119	      1.04071392	     21.91460248	     45.34685079	      0.00000000	      0.00000000
      5.41928571	     -0.24136725	     -5.98589649	      4.82606769	      0.92869226	      0.91132586	      0.56877381	      9.52277912	      8.06841559	    -12.02014082	     28.32938768	     28.32938768	     20.40847738	    -15.01483043	      1.69372167	     31.32549076	    -13.21831108	      4.30448958	     55.47776806	     55.47776806	     16.69745906	    -19.51734292	     21.17311571	    -10.70457990	      4.07132666	      0.47444579	     22.56123891	    -16.91421032	     -9.45898136	     59.25152272	     45.24812238	      0.00000000	      0.00000000	     -5.82357548	     -8.10327741	      8.57969304	     24.91002923	     43.99961294	      0.00000000	      0.00000000
      5.44000000	     -0.52775589	     -5.65931320	      5.75598740	      0.92546262	      0.91344007	      0.56620722	      8.82940934	      7.61261364	    -12.78262500	     26.85840909	     26.85840909	     20.17803010	    -14.52372218	      1.94149679	     31.73410949	    -11.90946720	      4.78095898	     51.23255046	     51.23255046	     15.80284536	    -19.37661121	     20.64858786	    -10.49097967	      3.69662839	      0.73205949	     25.53879905	    -17.36274630	     -9.69794485	     61.40196797	     45.20170638	      0.00000000	      0.00000000	     -7.15289563	     -7.96610900	      8.67565224	     24.79376330	     43.97972731	      0.00000000	      0.00000000
      5.46071429	     -0.93924244	     -5.34875644	      6.66484928	      0.92226484	      0.91546340	      0.56336507	      8.19962137	      7.11566277	    -13.73368756	     25.28038152	     25.28038152	     19.74450315	    -13.77489450	      1.44761670	     31.88462318	    -10.65051512	      5.21397440	     46.48678861	     46.48678861	     13.35299683	    -19.16377203	     16.50479384	    -10.20590756	      3.38338502	      1.01903528	     27.98753537	    -18.10158570	     -9.45157765	     64.79943441	     45.10669540	      0.00000000	      0.00000000	     -8.79514705	     -8.10839507	      8.85293044	     26.17526358	     43.98120234	      0.00000000	      0.00000000
      5.48142857	     -1.53749240	     -5.04548657	      7.46269957	      0.91893209	      0.91723414	      0.56046844	      7.81208274	      6.68936058	    -14.36904667	     23.76393561	     23.76393561	     19.37325593	    -13.47458961	      1.73314076	     32.18233213	     -9.33048099	      5.85639341	     42.04620773	     42.04620773	     12.35419885	    -18.46341119	     16.71531773	     -9.70316815	      2.98536559	      1.61407754	     30.93862097	    -18.89971765	     -9.68268940	     66.21334608	     45.08395725	      0.00000000	      0.00000000	     -9.62595950	     -8.01954662	      8.93004779	     26.08225534	     43.96315796	      0.00000000	      0.00000000
      5.50214286	     -1.69306286	     -4.86926917	      8.27926440	      0.91621647	      0.91940788	      0.55744763	      6.63624809	      6.45362147	    -15.36739785	     21.71486093	     21.71486093	     18.57679642	    -12.48230814	      0.43154861	     31.42976564	     -8.46053262	      6.21015981	     36.84538134	     36.84538134	      8.52563412	    -17.74527539	      9.43712319	     -9.75390479	      2.83775321	      1.60992438	     33.67497893	    -19.37263429	     -9.06563536	     69.17620955	     45.01886857	      0.00000000	      0.00000000	    -11.20779867	     -8.32389269	      9.74667344	     27.76248546	     43.93181517	      0.00000000	      0.00000000
      5.52285714	     -2.03397471	     -4.73154959	      8.98579485	      0.91345892	      0.92086856	      0.55441368	      5.88877906	      6.24936396	    -16.14160583	     20.12183572	     20.12183572	     18.27772279	    -11.68668031	      0.53090422	     31.15326456	     -7.68656616	      6.49308538	     32.73875491	     32.73875491	      7.81256181	    -15.52826869	      9.34693394	     -9.56894866	      2.66751072	      1.82510766	     36.61015784	    -19.73037319	     -9.11797822	     70.83951151	     44.98593069	      0.00000000	      0.00000000	    -11.98144782	     -8.31402602	      9.91289479	     27.82623076	     43.91715704	      0.00000000	      0.00000000
      5.54357143	     -2.40949577	     -4.70340587	      9.58041688	      0.91102679	      0.92163570	      0.55149031	      5.24023517	      6.13886791	    -16.99231983	     18.66686223	     18.66686223	     17.95365589	    -10.72372902	      0.05048651	     30.87336577	     -7.27832493	      6.20292567	     29.00980509	     29.00980509	      6.75027948	    -12.65275841	      7.55852211	     -9.32640251	      2.56314452	      1.97621320	     39.29736580	    -20.08743935	     -8.64310432	     72.76702392	     44.93983676	      0.00000000	      0.00000000	    -12.98805869	     -8.42596581	     10.20911672	     28.89087789	     43.91559566	      0.00000000	      0.00000000
      5.56428571	     -2.72648701	     -4.65037217	     10.05008169	      0.90874458	      0.92207959	      0.54856489	      4.69992761	      6.03554352	    -17.41432864	     17.56628085	     17.56628085	     17.79132649	    -10.30311714	      0.07721978	     30.51350551	     -6.86186257	      5.91793613	     25.88319992	     25.88319992	      6.32967069	    -10.09554519	      7.55167525	     -9.18519186	      2.41440453	      2.28295642	     41.95756225	    -20.31492037	     -8.62157657	     74.02979145	     44.91574195	      0.00000000	      0.00000000	    -13.47394769	     -8.42182629	     10.33427302	     29.06598061	     43.90801423	      0.00000000	      0.00000000
      5.58500000	     -2.97775408	     -4.84623570	     10.45768041	      0.90682132	      0.92190096	      0.54568985	      4.14470196	      6.17610877	    -18.05366461	     16.53740024	     16.53740024	     17.63109770	     -9.55521220	     -0.25484470	     30.32929258	     -6.86578940	      5.16303931	     23.63299930	     23.63299930	      5.92541755	     -7.19217167	      6.55343495	     -9.06529565	      2.56747964	      2.34452779	     44.55536722	    -20.24529275	     -8.16273316	     75.47632696	     44.87990705	      0.00000000	      0.00000000	    -14.14222687	     -8.40304693	     10.57936347	     29.85428363	     43.90281109	      0.00000000	      0.00000000
      5.60571429	     -3.24750314	     -4.88285688	     10.77701490	      0.90523864	      0.92134858	      0.54272867	      3.74695909	      6.12441782	    -18.37801449	     15.90049971	     15.90049971	     17.67308156	     -9.20371356	     -0.63347448	     30.05981114	     -6.67941846	      4.45020054	     21.81821112	     21.81821112	      5.34868690	     -5.22213767	      5.43159736	     -8.93417313	      2.45033266	      2.34015302	     46.90689558	    -20.20231100	     -7.76664823	     76.50844734	     44.86413569	      0.00000000	      0.00000000	    -14.64716811	     -8.48756236	     10.88208820	     30.62671862	     43.90676871	      0.00000000	      0.00000000
